<?xml version="1.0" encoding="UTF-8" standalone="no"?>
<!DOCTYPE svg PUBLIC "-//W3C//DTD SVG 1.1//EN"
 "http://www.w3.org/Graphics/SVG/1.1/DTD/svg11.dtd">
<!-- Generated by graphviz version 2.47.3 (20210619.1520)
 -->
<!-- Title: dependencies Pages: 1 -->
<svg width="2714pt" height="247pt"
 viewBox="0.00 0.00 2714.00 246.80" xmlns="http://www.w3.org/2000/svg" xmlns:xlink="http://www.w3.org/1999/xlink">
<g id="graph0" class="graph" transform="scale(1 1) rotate(0) translate(4 242.8)">
<title>dependencies</title>
<polygon fill="white" stroke="transparent" points="-4,4 -4,-242.8 2710,-242.8 2710,4 -4,4"/>
<text text-anchor="middle" x="1353" y="-8.2" font-family="sans-serif" font-size="14.00">dependencies</text>
<g id="clust1" class="cluster">
<title>cluster_AppModule</title>
<polygon fill="none" stroke="black" stroke-dasharray="1,5" points="8,-32.8 8,-230.8 2698,-230.8 2698,-32.8 8,-32.8"/>
</g>
<g id="clust2" class="cluster">
<title>cluster_AppModule_declarations</title>
<polygon fill="none" stroke="black" points="168,-40.8 168,-92.8 2690,-92.8 2690,-40.8 168,-40.8"/>
</g>
<g id="clust18" class="cluster">
<title>cluster_AppModule_imports</title>
<polygon fill="none" stroke="black" points="16,-40.8 16,-92.8 160,-92.8 160,-40.8 16,-40.8"/>
</g>
<g id="clust20" class="cluster">
<title>cluster_AppModule_bootstrap</title>
<polygon fill="none" stroke="black" points="1388,-170.8 1388,-222.8 1512,-222.8 1512,-170.8 1388,-170.8"/>
</g>
<!-- AppComponent -->
<g id="node1" class="node">
<title>AppComponent</title>
<polygon fill="#ffffb3" stroke="black" points="2681.94,-84.8 2576.06,-84.8 2576.06,-48.8 2681.94,-48.8 2681.94,-84.8"/>
<text text-anchor="middle" x="2629" y="-62.6" font-family="Times,serif" font-size="14.00">AppComponent</text>
</g>
<!-- AppModule -->
<g id="node16" class="node">
<title>AppModule</title>
<polygon fill="#8dd3c7" stroke="black" points="1491.66,-149.8 1488.66,-153.8 1467.66,-153.8 1464.66,-149.8 1408.34,-149.8 1408.34,-113.8 1491.66,-113.8 1491.66,-149.8"/>
<text text-anchor="middle" x="1450" y="-127.6" font-family="Times,serif" font-size="14.00">AppModule</text>
</g>
<!-- AppComponent&#45;&gt;AppModule -->
<g id="edge1" class="edge">
<title>AppComponent&#45;&gt;AppModule</title>
<path fill="none" stroke="black" d="M2629,-85.12C2629,-108.46 2629,-145.8 2629,-145.8 2629,-145.8 1501.96,-145.8 1501.96,-145.8"/>
<polygon fill="black" stroke="black" points="1501.96,-142.3 1491.96,-145.8 1501.96,-149.3 1501.96,-142.3"/>
</g>
<!-- CombinedDisplayComponent -->
<g id="node2" class="node">
<title>CombinedDisplayComponent</title>
<polygon fill="#ffffb3" stroke="black" points="2558.71,-84.8 2375.29,-84.8 2375.29,-48.8 2558.71,-48.8 2558.71,-84.8"/>
<text text-anchor="middle" x="2467" y="-62.6" font-family="Times,serif" font-size="14.00">CombinedDisplayComponent</text>
</g>
<!-- CombinedDisplayComponent&#45;&gt;AppModule -->
<g id="edge2" class="edge">
<title>CombinedDisplayComponent&#45;&gt;AppModule</title>
<path fill="none" stroke="black" d="M2467,-85.09C2467,-107.01 2467,-140.8 2467,-140.8 2467,-140.8 1501.76,-140.8 1501.76,-140.8"/>
<polygon fill="black" stroke="black" points="1501.76,-137.3 1491.76,-140.8 1501.76,-144.3 1501.76,-137.3"/>
</g>
<!-- HomePageComponent -->
<g id="node3" class="node">
<title>HomePageComponent</title>
<polygon fill="#ffffb3" stroke="black" points="2357.26,-84.8 2214.74,-84.8 2214.74,-48.8 2357.26,-48.8 2357.26,-84.8"/>
<text text-anchor="middle" x="2286" y="-62.6" font-family="Times,serif" font-size="14.00">HomePageComponent</text>
</g>
<!-- HomePageComponent&#45;&gt;AppModule -->
<g id="edge3" class="edge">
<title>HomePageComponent&#45;&gt;AppModule</title>
<path fill="none" stroke="black" d="M2286,-84.83C2286,-105.57 2286,-136.8 2286,-136.8 2286,-136.8 1501.74,-136.8 1501.74,-136.8"/>
<polygon fill="black" stroke="black" points="1501.74,-133.3 1491.74,-136.8 1501.74,-140.3 1501.74,-133.3"/>
</g>
<!-- MenuBarComponent -->
<g id="node4" class="node">
<title>MenuBarComponent</title>
<polygon fill="#ffffb3" stroke="black" points="2197.2,-84.8 2062.8,-84.8 2062.8,-48.8 2197.2,-48.8 2197.2,-84.8"/>
<text text-anchor="middle" x="2130" y="-62.6" font-family="Times,serif" font-size="14.00">MenuBarComponent</text>
</g>
<!-- MenuBarComponent&#45;&gt;AppModule -->
<g id="edge4" class="edge">
<title>MenuBarComponent&#45;&gt;AppModule</title>
<path fill="none" stroke="black" d="M2130,-84.91C2130,-104.14 2130,-131.8 2130,-131.8 2130,-131.8 1501.77,-131.8 1501.77,-131.8"/>
<polygon fill="black" stroke="black" points="1501.77,-128.3 1491.77,-131.8 1501.77,-135.3 1501.77,-128.3"/>
</g>
<!-- MovieComponent -->
<g id="node5" class="node">
<title>MovieComponent</title>
<polygon fill="#ffffb3" stroke="black" points="2044.88,-84.8 1927.12,-84.8 1927.12,-48.8 2044.88,-48.8 2044.88,-84.8"/>
<text text-anchor="middle" x="1986" y="-62.6" font-family="Times,serif" font-size="14.00">MovieComponent</text>
</g>
<!-- MovieComponent&#45;&gt;AppModule -->
<g id="edge5" class="edge">
<title>MovieComponent&#45;&gt;AppModule</title>
<path fill="none" stroke="black" d="M1986,-85.1C1986,-103.07 1986,-127.8 1986,-127.8 1986,-127.8 1502.06,-127.8 1502.06,-127.8"/>
<polygon fill="black" stroke="black" points="1502.06,-124.3 1492.06,-127.8 1502.06,-131.3 1502.06,-124.3"/>
</g>
<!-- MovieListComponent -->
<g id="node6" class="node">
<title>MovieListComponent</title>
<polygon fill="#ffffb3" stroke="black" points="1908.66,-84.8 1769.34,-84.8 1769.34,-48.8 1908.66,-48.8 1908.66,-84.8"/>
<text text-anchor="middle" x="1839" y="-62.6" font-family="Times,serif" font-size="14.00">MovieListComponent</text>
</g>
<!-- MovieListComponent&#45;&gt;AppModule -->
<g id="edge6" class="edge">
<title>MovieListComponent&#45;&gt;AppModule</title>
<path fill="none" stroke="black" d="M1839,-84.83C1839,-101.2 1839,-122.8 1839,-122.8 1839,-122.8 1502,-122.8 1502,-122.8"/>
<polygon fill="black" stroke="black" points="1502,-119.3 1492,-122.8 1502,-126.3 1502,-119.3"/>
</g>
<!-- MoviePageComponent -->
<g id="node7" class="node">
<title>MoviePageComponent</title>
<polygon fill="#ffffb3" stroke="black" points="1751.59,-84.8 1606.41,-84.8 1606.41,-48.8 1751.59,-48.8 1751.59,-84.8"/>
<text text-anchor="middle" x="1679" y="-62.6" font-family="Times,serif" font-size="14.00">MoviePageComponent</text>
</g>
<!-- MoviePageComponent&#45;&gt;AppModule -->
<g id="edge7" class="edge">
<title>MoviePageComponent&#45;&gt;AppModule</title>
<path fill="none" stroke="black" d="M1679,-84.99C1679,-99.98 1679,-118.8 1679,-118.8 1679,-118.8 1501.74,-118.8 1501.74,-118.8"/>
<polygon fill="black" stroke="black" points="1501.74,-115.3 1491.74,-118.8 1501.74,-122.3 1501.74,-115.3"/>
</g>
<!-- PieChartComponent -->
<g id="node8" class="node">
<title>PieChartComponent</title>
<polygon fill="#ffffb3" stroke="black" points="1588.32,-84.8 1457.68,-84.8 1457.68,-48.8 1588.32,-48.8 1588.32,-84.8"/>
<text text-anchor="middle" x="1523" y="-62.6" font-family="Times,serif" font-size="14.00">PieChartComponent</text>
</g>
<!-- PieChartComponent&#45;&gt;AppModule -->
<g id="edge8" class="edge">
<title>PieChartComponent&#45;&gt;AppModule</title>
<path fill="none" stroke="black" d="M1474.83,-84.91C1474.83,-84.91 1474.83,-103.79 1474.83,-103.79"/>
<polygon fill="black" stroke="black" points="1471.33,-103.79 1474.83,-113.79 1478.33,-103.79 1471.33,-103.79"/>
</g>
<!-- ReviewComponent -->
<g id="node9" class="node">
<title>ReviewComponent</title>
<polygon fill="#ffffb3" stroke="black" points="1440.1,-84.8 1315.9,-84.8 1315.9,-48.8 1440.1,-48.8 1440.1,-84.8"/>
<text text-anchor="middle" x="1378" y="-62.6" font-family="Times,serif" font-size="14.00">ReviewComponent</text>
</g>
<!-- ReviewComponent&#45;&gt;AppModule -->
<g id="edge9" class="edge">
<title>ReviewComponent&#45;&gt;AppModule</title>
<path fill="none" stroke="black" d="M1424.11,-84.91C1424.11,-84.91 1424.11,-103.79 1424.11,-103.79"/>
<polygon fill="black" stroke="black" points="1420.61,-103.79 1424.11,-113.79 1427.61,-103.79 1420.61,-103.79"/>
</g>
<!-- ReviewListComponent -->
<g id="node10" class="node">
<title>ReviewListComponent</title>
<polygon fill="#ffffb3" stroke="black" points="1297.87,-84.8 1152.13,-84.8 1152.13,-48.8 1297.87,-48.8 1297.87,-84.8"/>
<text text-anchor="middle" x="1225" y="-62.6" font-family="Times,serif" font-size="14.00">ReviewListComponent</text>
</g>
<!-- ReviewListComponent&#45;&gt;AppModule -->
<g id="edge10" class="edge">
<title>ReviewListComponent&#45;&gt;AppModule</title>
<path fill="none" stroke="black" d="M1225,-84.99C1225,-99.98 1225,-118.8 1225,-118.8 1225,-118.8 1398.21,-118.8 1398.21,-118.8"/>
<polygon fill="black" stroke="black" points="1398.21,-122.3 1408.21,-118.8 1398.21,-115.3 1398.21,-122.3"/>
</g>
<!-- ReviewPageComponent -->
<g id="node11" class="node">
<title>ReviewPageComponent</title>
<polygon fill="#ffffb3" stroke="black" points="1133.81,-84.8 982.19,-84.8 982.19,-48.8 1133.81,-48.8 1133.81,-84.8"/>
<text text-anchor="middle" x="1058" y="-62.6" font-family="Times,serif" font-size="14.00">ReviewPageComponent</text>
</g>
<!-- ReviewPageComponent&#45;&gt;AppModule -->
<g id="edge11" class="edge">
<title>ReviewPageComponent&#45;&gt;AppModule</title>
<path fill="none" stroke="black" d="M1058,-84.83C1058,-101.2 1058,-122.8 1058,-122.8 1058,-122.8 1398.05,-122.8 1398.05,-122.8"/>
<polygon fill="black" stroke="black" points="1398.05,-126.3 1408.05,-122.8 1398.05,-119.3 1398.05,-126.3"/>
</g>
<!-- SearchResultsPageComponent -->
<g id="node12" class="node">
<title>SearchResultsPageComponent</title>
<polygon fill="#ffffb3" stroke="black" points="963.85,-84.8 776.15,-84.8 776.15,-48.8 963.85,-48.8 963.85,-84.8"/>
<text text-anchor="middle" x="870" y="-62.6" font-family="Times,serif" font-size="14.00">SearchResultsPageComponent</text>
</g>
<!-- SearchResultsPageComponent&#45;&gt;AppModule -->
<g id="edge12" class="edge">
<title>SearchResultsPageComponent&#45;&gt;AppModule</title>
<path fill="none" stroke="black" d="M870,-85.1C870,-103.07 870,-127.8 870,-127.8 870,-127.8 1398.29,-127.8 1398.29,-127.8"/>
<polygon fill="black" stroke="black" points="1398.29,-131.3 1408.29,-127.8 1398.29,-124.3 1398.29,-131.3"/>
</g>
<!-- SentimentDisplayComponent -->
<g id="node13" class="node">
<title>SentimentDisplayComponent</title>
<polygon fill="#ffffb3" stroke="black" points="757.65,-84.8 576.35,-84.8 576.35,-48.8 757.65,-48.8 757.65,-84.8"/>
<text text-anchor="middle" x="667" y="-62.6" font-family="Times,serif" font-size="14.00">SentimentDisplayComponent</text>
</g>
<!-- SentimentDisplayComponent&#45;&gt;AppModule -->
<g id="edge13" class="edge">
<title>SentimentDisplayComponent&#45;&gt;AppModule</title>
<path fill="none" stroke="black" d="M667,-84.91C667,-104.14 667,-131.8 667,-131.8 667,-131.8 1398.18,-131.8 1398.18,-131.8"/>
<polygon fill="black" stroke="black" points="1398.18,-135.3 1408.18,-131.8 1398.18,-128.3 1398.18,-135.3"/>
</g>
<!-- WordCloudComponent -->
<g id="node14" class="node">
<title>WordCloudComponent</title>
<polygon fill="#ffffb3" stroke="black" points="557.94,-84.8 410.06,-84.8 410.06,-48.8 557.94,-48.8 557.94,-84.8"/>
<text text-anchor="middle" x="484" y="-62.6" font-family="Times,serif" font-size="14.00">WordCloudComponent</text>
</g>
<!-- WordCloudComponent&#45;&gt;AppModule -->
<g id="edge14" class="edge">
<title>WordCloudComponent&#45;&gt;AppModule</title>
<path fill="none" stroke="black" d="M484,-84.83C484,-105.57 484,-136.8 484,-136.8 484,-136.8 1398.18,-136.8 1398.18,-136.8"/>
<polygon fill="black" stroke="black" points="1398.18,-140.3 1408.18,-136.8 1398.18,-133.3 1398.18,-140.3"/>
</g>
<!-- WordFrequencyDisplayComponent -->
<g id="node15" class="node">
<title>WordFrequencyDisplayComponent</title>
<polygon fill="#ffffb3" stroke="black" points="391.84,-84.8 176.16,-84.8 176.16,-48.8 391.84,-48.8 391.84,-84.8"/>
<text text-anchor="middle" x="284" y="-62.6" font-family="Times,serif" font-size="14.00">WordFrequencyDisplayComponent</text>
</g>
<!-- WordFrequencyDisplayComponent&#45;&gt;AppModule -->
<g id="edge15" class="edge">
<title>WordFrequencyDisplayComponent&#45;&gt;AppModule</title>
<path fill="none" stroke="black" d="M284,-85.09C284,-107.01 284,-140.8 284,-140.8 284,-140.8 1398.16,-140.8 1398.16,-140.8"/>
<polygon fill="black" stroke="black" points="1398.16,-144.3 1408.16,-140.8 1398.16,-137.3 1398.16,-144.3"/>
</g>
<!-- AppComponent  -->
<g id="node18" class="node">
<title>AppComponent </title>
<polygon fill="#80b1d3" stroke="black" points="1504.44,-214.8 1395.56,-214.8 1395.56,-178.8 1504.44,-178.8 1504.44,-214.8"/>
<text text-anchor="middle" x="1450" y="-192.6" font-family="Times,serif" font-size="14.00">AppComponent </text>
</g>
<!-- AppModule&#45;&gt;AppComponent  -->
<g id="edge17" class="edge">
<title>AppModule&#45;&gt;AppComponent </title>
<path fill="none" stroke="black" stroke-dasharray="1,5" d="M1450,-149.91C1450,-149.91 1450,-168.79 1450,-168.79"/>
<polygon fill="black" stroke="black" points="1446.5,-168.79 1450,-178.79 1453.5,-168.79 1446.5,-168.79"/>
</g>
<!-- AppRoutingModule -->
<g id="node17" class="node">
<title>AppRoutingModule</title>
<polygon fill="#8dd3c7" stroke="black" points="152.27,-84.8 149.27,-88.8 128.27,-88.8 125.27,-84.8 23.73,-84.8 23.73,-48.8 152.27,-48.8 152.27,-84.8"/>
<text text-anchor="middle" x="88" y="-62.6" font-family="Times,serif" font-size="14.00">AppRoutingModule</text>
</g>
<!-- AppRoutingModule&#45;&gt;AppModule -->
<g id="edge16" class="edge">
<title>AppRoutingModule&#45;&gt;AppModule</title>
<path fill="none" stroke="black" d="M88,-85.12C88,-108.46 88,-145.8 88,-145.8 88,-145.8 1398.12,-145.8 1398.12,-145.8"/>
<polygon fill="black" stroke="black" points="1398.12,-149.3 1408.12,-145.8 1398.12,-142.3 1398.12,-149.3"/>
</g>
</g>
</svg>
